<svg width="332" height="101" viewBox="0 0 332 101" fill="none" xmlns="http://www.w3.org/2000/svg">
<path d="M0.090909 99V5.90909H19.4545V40.9091H20.0455C20.8939 39.0303 22.1212 37.1212 23.7273 35.1818C25.3636 33.2121 27.4849 31.5758 30.0909 30.2727C32.7273 28.9394 36 28.2727 39.9091 28.2727C45 28.2727 49.697 29.6061 54 32.2727C58.303 34.9091 61.7424 38.8939 64.3182 44.2273C66.8939 49.5303 68.1818 56.1818 68.1818 64.1818C68.1818 71.9697 66.9242 78.5455 64.4091 83.9091C61.9242 89.2424 58.5303 93.2879 54.2273 96.0455C49.9545 98.7727 45.1667 100.136 39.8636 100.136C36.1061 100.136 32.9091 99.5152 30.2727 98.2727C27.6667 97.0303 25.5303 95.4697 23.8636 93.5909C22.197 91.6818 20.9242 89.7576 20.0455 87.8182H19.1818V99H0.090909ZM19.0455 64.0909C19.0455 68.2424 19.6212 71.8636 20.7727 74.9545C21.9242 78.0455 23.5909 80.4545 25.7727 82.1818C27.9545 83.8788 30.6061 84.7273 33.7273 84.7273C36.8788 84.7273 39.5455 83.8636 41.7273 82.1364C43.9091 80.3788 45.5606 77.9545 46.6818 74.8636C47.8333 71.7424 48.4091 68.1515 48.4091 64.0909C48.4091 60.0606 47.8485 56.5151 46.7273 53.4545C45.6061 50.3939 43.9545 48 41.7727 46.2727C39.5909 44.5455 36.9091 43.6818 33.7273 43.6818C30.5758 43.6818 27.9091 44.5151 25.7273 46.1818C23.5758 47.8485 21.9242 50.2121 20.7727 53.2727C19.6212 56.3333 19.0455 59.9394 19.0455 64.0909ZM81.1023 99V29.1818H100.466V99H81.1023ZM90.8295 20.1818C87.9508 20.1818 85.4811 19.2273 83.4205 17.3182C81.3902 15.3788 80.375 13.0606 80.375 10.3636C80.375 7.69697 81.3902 5.40909 83.4205 3.5C85.4811 1.5606 87.9508 0.590904 90.8295 0.590904C93.7083 0.590904 96.1629 1.5606 98.1932 3.5C100.254 5.40909 101.284 7.69697 101.284 10.3636C101.284 13.0606 100.254 15.3788 98.1932 17.3182C96.1629 19.2273 93.7083 20.1818 90.8295 20.1818ZM115.977 99V29.1818H134.432V41.5H135.25C136.705 37.4091 139.129 34.1818 142.523 31.8182C145.917 29.4545 149.977 28.2727 154.705 28.2727C159.492 28.2727 163.568 29.4697 166.932 31.8636C170.295 34.2273 172.538 37.4394 173.659 41.5H174.386C175.811 37.5 178.386 34.303 182.114 31.9091C185.871 29.4848 190.311 28.2727 195.432 28.2727C201.947 28.2727 207.235 30.3485 211.295 34.5C215.386 38.6212 217.432 44.4697 217.432 52.0455V99H198.114V55.8636C198.114 51.9848 197.083 49.0758 195.023 47.1364C192.962 45.197 190.386 44.2273 187.295 44.2273C183.78 44.2273 181.038 45.3485 179.068 47.5909C177.098 49.803 176.114 52.7273 176.114 56.3636V99H157.341V55.4545C157.341 52.0303 156.356 49.303 154.386 47.2727C152.447 45.2424 149.886 44.2273 146.705 44.2273C144.553 44.2273 142.614 44.7727 140.886 45.8636C139.189 46.9242 137.841 48.4242 136.841 50.3636C135.841 52.2727 135.341 54.5152 135.341 57.0909V99H115.977ZM264.545 100.364C257.364 100.364 251.182 98.9091 246 96C240.848 93.0606 236.879 88.9091 234.091 83.5455C231.303 78.1515 229.909 71.7727 229.909 64.4091C229.909 57.2273 231.303 50.9242 234.091 45.5C236.879 40.0758 240.803 35.8485 245.864 32.8182C250.955 29.7879 256.924 28.2727 263.773 28.2727C268.379 28.2727 272.667 29.0152 276.636 30.5C280.636 31.9545 284.121 34.1515 287.091 37.0909C290.091 40.0303 292.424 43.7273 294.091 48.1818C295.758 52.6061 296.591 57.7879 296.591 63.7273V69.0455H237.636V57.0455H278.364C278.364 54.2576 277.758 51.7879 276.545 49.6364C275.333 47.4848 273.652 45.803 271.5 44.5909C269.379 43.3485 266.909 42.7273 264.091 42.7273C261.152 42.7273 258.545 43.4091 256.273 44.7727C254.03 46.1061 252.273 47.9091 251 50.1818C249.727 52.4242 249.076 54.9242 249.045 57.6818V69.0909C249.045 72.5455 249.682 75.5303 250.955 78.0455C252.258 80.5606 254.091 82.5 256.455 83.8636C258.818 85.2273 261.621 85.9091 264.864 85.9091C267.015 85.9091 268.985 85.6061 270.773 85C272.561 84.3939 274.091 83.4848 275.364 82.2727C276.636 81.0606 277.606 79.5758 278.273 77.8182L296.182 79C295.273 83.303 293.409 87.0606 290.591 90.2727C287.803 93.4545 284.197 95.9394 279.773 97.7273C275.379 99.4848 270.303 100.364 264.545 100.364ZM320.545 100.182C317.545 100.182 314.97 99.1212 312.818 97C310.697 94.8485 309.636 92.2727 309.636 89.2727C309.636 86.303 310.697 83.7576 312.818 81.6364C314.97 79.5152 317.545 78.4545 320.545 78.4545C323.455 78.4545 326 79.5152 328.182 81.6364C330.364 83.7576 331.455 86.303 331.455 89.2727C331.455 91.2727 330.939 93.1061 329.909 94.7727C328.909 96.4091 327.591 97.7273 325.955 98.7273C324.318 99.697 322.515 100.182 320.545 100.182Z" fill="white"/>
</svg>
